<svg width="184" height="23" viewBox="0 0 184 23" fill="none" xmlns="http://www.w3.org/2000/svg">
<path fill-rule="evenodd" clip-rule="evenodd" d="M23.9621 8.90419C23.9621 8.54948 23.6938 8.32907 23.1566 8.24278L15.9395 7.19331L12.7046 0.651545C12.5227 0.258545 12.2876 0.0621338 12.0002 0.0621338C11.7127 0.0621338 11.4778 0.258545 11.2957 0.651545L8.06065 7.19331L0.843176 8.24278C0.306529 8.32907 0.0381174 8.54948 0.0381174 8.90419C0.0381174 9.10554 0.157941 9.33566 0.397588 9.59437L5.631 14.684L4.39465 21.8727C4.37541 22.007 4.36588 22.103 4.36588 22.1603C4.36588 22.3617 4.41618 22.5316 4.51676 22.6708C4.61735 22.8099 4.76823 22.8792 4.96959 22.8792C5.14218 22.8792 5.33382 22.8221 5.5447 22.7068L12 19.3135L18.4558 22.7068C18.6573 22.8219 18.849 22.8792 19.0308 22.8792C19.2229 22.8792 19.3689 22.8101 19.4695 22.6708C19.5699 22.5318 19.6202 22.3617 19.6202 22.1603C19.6202 22.0357 19.6154 21.9399 19.6057 21.8727L18.3692 14.684L23.5881 9.59437C23.8376 9.34519 23.9621 9.11507 23.9621 8.90419Z" fill="#F2C94C"/>
<path fill-rule="evenodd" clip-rule="evenodd" d="M63.9621 8.90419C63.9621 8.54948 63.6938 8.32907 63.1566 8.24278L55.9395 7.19331L52.7046 0.651545C52.5227 0.258545 52.2876 0.0621338 52.0002 0.0621338C51.7127 0.0621338 51.4778 0.258545 51.2957 0.651545L48.0606 7.19331L40.8432 8.24278C40.3065 8.32907 40.0381 8.54948 40.0381 8.90419C40.0381 9.10554 40.1579 9.33566 40.3976 9.59437L45.631 14.684L44.3946 21.8727C44.3754 22.007 44.3659 22.103 44.3659 22.1603C44.3659 22.3617 44.4162 22.5316 44.5168 22.6708C44.6174 22.8099 44.7682 22.8792 44.9696 22.8792C45.1422 22.8792 45.3338 22.8221 45.5447 22.7068L52 19.3135L58.4558 22.7068C58.6573 22.8219 58.849 22.8792 59.0308 22.8792C59.2229 22.8792 59.3689 22.8101 59.4695 22.6708C59.5699 22.5318 59.6202 22.3617 59.6202 22.1603C59.6202 22.0357 59.6154 21.9399 59.6057 21.8727L58.3692 14.684L63.5881 9.59437C63.8376 9.34519 63.9621 9.11507 63.9621 8.90419Z" fill="#F2C94C"/>
<path fill-rule="evenodd" clip-rule="evenodd" d="M103.962 8.90419C103.962 8.54948 103.694 8.32907 103.157 8.24278L95.9395 7.19331L92.7046 0.651545C92.5227 0.258545 92.2876 0.0621338 92.0002 0.0621338C91.7127 0.0621338 91.4778 0.258545 91.2957 0.651545L88.0606 7.19331L80.8432 8.24278C80.3065 8.32907 80.0381 8.54948 80.0381 8.90419C80.0381 9.10554 80.1579 9.33566 80.3976 9.59437L85.631 14.684L84.3946 21.8727C84.3754 22.007 84.3659 22.103 84.3659 22.1603C84.3659 22.3617 84.4162 22.5316 84.5168 22.6708C84.6174 22.8099 84.7682 22.8792 84.9696 22.8792C85.1422 22.8792 85.3338 22.8221 85.5447 22.7068L92 19.3135L98.4558 22.7068C98.6573 22.8219 98.849 22.8792 99.0308 22.8792C99.2229 22.8792 99.3689 22.8101 99.4695 22.6708C99.5699 22.5318 99.6202 22.3617 99.6202 22.1603C99.6202 22.0357 99.6154 21.9399 99.6057 21.8727L98.3692 14.684L103.588 9.59437C103.838 9.34519 103.962 9.11507 103.962 8.90419Z" fill="black"/>
<path fill-rule="evenodd" clip-rule="evenodd" d="M143.962 8.90419C143.962 8.54948 143.694 8.32907 143.157 8.24278L135.94 7.19331L132.705 0.651545C132.523 0.258545 132.288 0.0621338 132 0.0621338C131.713 0.0621338 131.478 0.258545 131.296 0.651545L128.061 7.19331L120.843 8.24278C120.307 8.32907 120.038 8.54948 120.038 8.90419C120.038 9.10554 120.158 9.33566 120.398 9.59437L125.631 14.684L124.395 21.8727C124.375 22.007 124.366 22.103 124.366 22.1603C124.366 22.3617 124.416 22.5316 124.517 22.6708C124.617 22.8099 124.768 22.8792 124.97 22.8792C125.142 22.8792 125.334 22.8221 125.545 22.7068L132 19.3135L138.456 22.7068C138.657 22.8219 138.849 22.8792 139.031 22.8792C139.223 22.8792 139.369 22.8101 139.469 22.6708C139.57 22.5318 139.62 22.3617 139.62 22.1603C139.62 22.0357 139.615 21.9399 139.606 21.8727L138.369 14.684L143.588 9.59437C143.838 9.34519 143.962 9.11507 143.962 8.90419Z" fill="black"/>
<path fill-rule="evenodd" clip-rule="evenodd" d="M183.962 8.90419C183.962 8.54948 183.694 8.32907 183.157 8.24278L175.94 7.19331L172.705 0.651545C172.523 0.258545 172.288 0.0621338 172 0.0621338C171.713 0.0621338 171.478 0.258545 171.296 0.651545L168.061 7.19331L160.843 8.24278C160.307 8.32907 160.038 8.54948 160.038 8.90419C160.038 9.10554 160.158 9.33566 160.398 9.59437L165.631 14.684L164.395 21.8727C164.375 22.007 164.366 22.103 164.366 22.1603C164.366 22.3617 164.416 22.5316 164.517 22.6708C164.617 22.8099 164.768 22.8792 164.97 22.8792C165.142 22.8792 165.334 22.8221 165.545 22.7068L172 19.3135L178.456 22.7068C178.657 22.8219 178.849 22.8792 179.031 22.8792C179.223 22.8792 179.369 22.8101 179.469 22.6708C179.57 22.5318 179.62 22.3617 179.62 22.1603C179.62 22.0357 179.615 21.9399 179.606 21.8727L178.369 14.684L183.588 9.59437C183.838 9.34519 183.962 9.11507 183.962 8.90419Z" fill="black"/>
</svg>
