<svg width="100" height="105" viewBox="0 0 100 105" fill="none" xmlns="http://www.w3.org/2000/svg">
<path d="M0 5.00012H80C91.0457 5.00012 100 13.9544 100 25.0001V105H20C8.9543 105 0 96.0458 0 85.0001V5.00012Z" fill="#3E98E1"/>
<path d="M0 5.00016C0 5.00016 61 -9.49984 80 12.5002C99 34.5002 100 105 100 105H20C8.9543 105 0 96.0459 0 85.0002V5.00016Z" fill="#1B73BA"/>
<path d="M0 43.0002C0 43.0002 56.5213 23.0001 64.5 60.5001C72.4787 98.0002 98.5 105 98.5 105H20C8.9543 105 0 96.0459 0 85.0002V43.0002Z" fill="#165487"/>
</svg>
