<svg width="90" height="90" viewBox="0 0 90 90" fill="none" xmlns="http://www.w3.org/2000/svg">
<path fill-rule="evenodd" clip-rule="evenodd" d="M83.7 22.5657C79.7036 15.7185 74.2821 10.2971 67.435 6.30068C60.5864 2.30425 53.11 0.306396 45.0007 0.306396C36.8921 0.306396 29.4136 2.30425 22.5664 6.30068C15.7186 10.2964 10.2971 15.7178 6.30071 22.5657C2.30357 29.4135 0.305714 36.8921 0.305714 45C0.305714 53.1085 2.30429 60.5857 6.3 67.4342C10.2964 74.2807 15.7179 79.7028 22.5657 83.6992C29.4136 87.6957 36.8914 89.6935 45 89.6935C53.1086 89.6935 60.5871 87.6957 67.4343 83.6992C74.2814 79.7035 79.7029 74.2814 83.6993 67.4342C87.695 60.5864 89.6928 53.1078 89.6928 45C89.6928 36.8914 87.695 29.4128 83.7 22.5657V22.5657ZM45 6.82425C54.6207 6.82425 63.0207 10.0057 70.1979 16.3678L69.4707 17.3857C69.1793 17.7935 68.4521 18.5785 67.2879 19.7428C66.1243 20.9064 64.8536 22.0128 63.4764 23.06C62.0986 24.1078 60.2279 25.3007 57.8607 26.6393C55.4936 27.9778 52.9721 29.1521 50.295 30.1607C45.8336 21.935 41.0621 14.525 35.9793 7.92997C39.045 7.19283 42.0514 6.82425 45 6.82425V6.82425ZM15.0886 21.3135C18.8129 16.62 23.3514 13.0114 28.7057 10.49C33.5164 16.8914 38.2493 24.2243 42.905 32.4878C31.1107 35.5914 19.3557 37.1435 7.63929 37.1428C8.88143 31.285 11.3643 26.0078 15.0886 21.3135V21.3135ZM9.38429 58.7643C7.67714 54.3993 6.82357 49.8114 6.82357 45C6.82357 44.4564 6.84357 44.0493 6.88214 43.7778C20.9271 43.7778 33.9821 41.9743 46.0479 38.3657C47.2893 40.7707 48.3179 42.9243 49.1321 44.8257C48.9757 44.9028 48.7257 44.99 48.3757 45.0871C48.0257 45.1843 47.7736 45.2514 47.6179 45.2907L45.465 46.0478C43.99 46.5907 42.0593 47.5214 39.6743 48.8407C37.2886 50.1607 34.7571 51.7314 32.08 53.555C29.4029 55.3793 26.6386 57.7943 23.7871 60.8014C20.9357 63.8078 18.54 67.0371 16.6 70.49C13.4964 67.0371 11.0914 63.1278 9.38429 58.7643V58.7643ZM45 83.1764C35.9214 83.1764 27.8129 80.2664 20.6743 74.4471L21.5471 75.0871C22.905 72.0993 24.9029 69.2285 27.5414 66.4743C30.18 63.72 32.7207 61.4978 35.165 59.81C37.6093 58.1228 40.2664 56.5328 43.1379 55.0378C46.0086 53.5443 47.9671 52.5935 49.015 52.1871C50.0629 51.7793 50.8971 51.4585 51.5179 51.2264L51.6343 51.1678H51.7507C55.5521 61.1385 58.2686 70.7993 59.8979 80.1493C55.0871 82.1671 50.1214 83.1757 45 83.1764V83.1764ZM77.125 65.6307C74.2536 70.0728 70.6643 73.7493 66.3593 76.6585C64.7671 67.7357 62.2857 58.6371 58.9093 49.365C66.63 48.1614 74.5636 48.7243 82.7107 51.0514C81.8571 56.3278 79.995 61.1878 77.125 65.6307V65.6307ZM82.5936 44.4764C82.2057 44.3993 81.7207 44.3114 81.1386 44.215C80.5571 44.1185 79.8486 44.0014 79.0143 43.8657C78.1807 43.73 77.2486 43.6043 76.2207 43.4878C75.1929 43.3714 74.0971 43.265 72.9321 43.1678C71.7686 43.0707 70.5271 42.9935 69.2086 42.935C67.8879 42.8771 66.55 42.8478 65.1921 42.8478C63.835 42.8478 62.4086 42.8871 60.9157 42.9643C59.4221 43.0407 57.9771 43.1778 56.5807 43.3714C56.4636 43.1771 56.3186 42.8571 56.1443 42.4107C55.97 41.965 55.8429 41.625 55.7671 41.3921C55.0293 39.7628 54.1757 37.92 53.205 35.8643C55.8821 34.7771 58.4336 33.5264 60.8593 32.11C63.2836 30.6935 65.2221 29.4335 66.6779 28.3278C68.1329 27.2214 69.51 26.0478 70.81 24.8064C72.1093 23.565 72.9529 22.7021 73.3414 22.2171C73.73 21.7314 74.0986 21.2564 74.4471 20.7914L74.5057 20.7328C80.17 27.6385 83.0614 35.5914 83.1764 44.5928L82.5936 44.4764V44.4764Z" fill="#D5645B"/>
</svg>
