<svg width="90" height="90" viewBox="0 0 90 90" fill="none" xmlns="http://www.w3.org/2000/svg">
<path fill-rule="evenodd" clip-rule="evenodd" d="M86.3186 3.68211C84.0686 1.4314 81.3714 0.306396 78.23 0.306396H11.7707C8.62785 0.306396 5.93214 1.43211 3.68142 3.68211C1.43071 5.93211 0.30571 8.62854 0.30571 11.7707V78.2293C0.30571 81.3714 1.43071 84.0678 3.68142 86.3178C5.93214 88.5685 8.62857 89.6943 11.7707 89.6943H78.2293C81.3707 89.6943 84.0678 88.5685 86.3178 86.3178C88.5686 84.0678 89.6928 81.3714 89.6928 78.2293V11.7707C89.6928 8.62783 88.5686 5.93283 86.3186 3.68211V3.68211ZM32.4014 32.5171C35.9121 29.1228 40.1314 27.425 45.0586 27.425C50.0243 27.425 54.2629 29.1228 57.7743 32.5171C61.285 35.9121 63.0407 40.015 63.0407 44.8257C63.0407 49.6357 61.285 53.7393 57.7743 57.1328C54.2629 60.5278 50.025 62.2257 45.0586 62.2257C40.1314 62.2257 35.9129 60.5271 32.4014 57.1328C28.89 53.7385 27.1343 49.6357 27.1343 44.8257C27.1343 40.015 28.89 35.9121 32.4014 32.5171V32.5171ZM79.5686 75.8443C79.5686 76.8521 79.2186 77.6957 78.5207 78.375C77.8214 79.0543 76.9879 79.3935 76.0171 79.3935H13.8079C12.7993 79.3935 11.955 79.0543 11.2764 78.375C10.5971 77.6971 10.2579 76.8521 10.2579 75.8443V38.1328H18.4629C17.6871 40.5771 17.2993 43.1185 17.2993 45.7564C17.2993 53.2064 20.015 59.5593 25.4464 64.8164C30.8786 70.0728 37.4157 72.7021 45.0586 72.7021C50.1021 72.7021 54.7579 71.4985 59.0264 69.0935C63.2943 66.6871 66.6679 63.4193 69.1521 59.2871C71.6357 55.155 72.8771 50.6443 72.8771 45.7564C72.8771 43.1185 72.4879 40.5778 71.7121 38.1328H79.5693V75.8443H79.5686ZM79.5686 23.875C79.5686 25 79.1807 25.9507 78.4036 26.7264C77.6278 27.5028 76.6778 27.8907 75.5521 27.8907H65.4264C64.3021 27.8907 63.3507 27.5028 62.575 26.7264C61.7993 25.9507 61.4114 25 61.4114 23.875V14.2735C61.4114 13.1871 61.7993 12.2464 62.575 11.4507C63.3507 10.6557 64.3021 10.2578 65.4264 10.2578H75.5521C76.6778 10.2578 77.6278 10.6557 78.4036 11.4507C79.1807 12.2464 79.5686 13.1871 79.5686 14.2735V23.875V23.875Z" fill="url(#paint0_linear)"/>
<defs>
<linearGradient id="paint0_linear" x1="44.9993" y1="0.306396" x2="44.9993" y2="89.6943" gradientUnits="userSpaceOnUse">
<stop stop-color="#E4296D"/>
<stop offset="1" stop-color="#FFCE75"/>
</linearGradient>
</defs>
</svg>
