<svg width="91" height="90" viewBox="0 0 91 90" fill="none" xmlns="http://www.w3.org/2000/svg">
<path fill-rule="evenodd" clip-rule="evenodd" d="M84.6286 23.4487C80.5877 16.5335 75.1061 11.0587 68.1828 7.02297C61.2582 2.98724 53.6987 0.969727 45.4993 0.969727C37.3006 0.969727 29.7389 2.98796 22.8157 7.02297C15.8918 11.0587 10.4101 16.5335 6.36927 23.4487C2.32844 30.3639 0.30838 37.9153 0.30838 46.1029C0.30838 55.9373 3.18138 64.7813 8.92883 72.6364C14.6755 80.4914 22.0993 85.9272 31.2 88.9438C32.2595 89.14 33.0438 89.0022 33.5537 88.5333C34.0636 88.063 34.3186 87.4752 34.3186 86.7704C34.3186 86.6529 34.3084 85.5954 34.2889 83.5974C34.2687 81.5987 34.2593 79.8552 34.2593 78.3679L32.9059 78.6016C32.0428 78.7596 30.9544 78.8267 29.64 78.8072C28.3263 78.7891 26.9627 78.6514 25.5508 78.396C24.1381 78.1421 22.8244 77.555 21.6082 76.6346C20.3927 75.7135 19.5296 74.5082 19.0197 73.0201L18.4311 71.6676C18.0389 70.7674 17.4214 69.7677 16.5779 68.6713C15.7343 67.5742 14.8814 66.8298 14.0183 66.4381L13.6067 66.1446C13.3322 65.9484 13.0773 65.7125 12.8418 65.4384C12.6064 65.1643 12.4302 64.8902 12.3124 64.6154C12.1947 64.3413 12.2922 64.1155 12.6064 63.9388C12.9205 63.7621 13.4889 63.6755 14.313 63.6755L15.4895 63.8515C16.2738 64.008 17.2445 64.4776 18.4022 65.2617C19.5592 66.045 20.5104 67.0635 21.2557 68.3164C22.1585 69.9235 23.2462 71.1476 24.5216 71.9901C25.7963 72.8326 27.0812 73.2531 28.3754 73.2531C29.6696 73.2531 30.7876 73.155 31.7294 72.9595C32.6704 72.764 33.553 72.4697 34.377 72.0781C34.7302 69.4525 35.6915 67.435 37.2602 66.0248C35.0242 65.7897 33.0142 65.4362 31.2289 64.9666C29.4443 64.4964 27.6004 63.7325 25.6981 62.6736C23.795 61.6162 22.2163 60.3034 20.961 58.7367C19.7058 57.1693 18.6759 55.1121 17.8721 52.5659C17.0683 50.0189 16.666 47.081 16.666 43.7507C16.666 39.0095 18.2159 34.9745 21.3149 31.6442C19.8633 28.0795 20.0005 24.0834 21.7266 19.656C22.8641 19.3033 24.5512 19.568 26.7872 20.4495C29.0232 21.3309 30.6605 22.0861 31.7005 22.7122C32.7405 23.3383 33.5739 23.8685 34.2015 24.2991C37.8502 23.2806 41.6159 22.7714 45.4993 22.7714C49.3827 22.7714 53.1491 23.2806 56.7984 24.2991L59.0344 22.8889C60.5634 21.9484 62.3689 21.0864 64.4468 20.303C66.526 19.5197 68.1157 19.304 69.2142 19.6567C70.9793 24.0842 71.136 28.0802 69.6843 31.6449C72.7834 34.9752 74.3333 39.011 74.3333 43.7514C74.3333 47.0817 73.9303 50.029 73.1272 52.5954C72.3226 55.1626 71.2841 57.2183 70.0093 58.7663C68.7339 60.3142 67.145 61.6169 65.2427 62.6743C63.3396 63.7325 61.4958 64.4964 59.7112 64.9666C57.9258 65.4369 55.9159 65.7904 53.6799 66.0255C55.7194 67.7884 56.7392 70.5698 56.7392 74.3704V86.769C56.7392 87.4737 56.9848 88.0616 57.4752 88.5312C57.9656 89.0007 58.7398 89.1385 59.7993 88.9423C68.9007 85.9258 76.3244 80.49 82.0712 72.6342C87.8179 64.7798 90.6916 55.9358 90.6916 46.1007C90.6894 37.9146 88.6679 30.3639 84.6286 23.4487Z" fill="black"/>
</svg>
