<svg width="100" height="100" viewBox="0 0 100 100" fill="none" xmlns="http://www.w3.org/2000/svg">
<path d="M0 0H80C91.0457 0 100 8.95431 100 20V100H20C8.9543 100 0 91.0457 0 80V0Z" fill="#00F260"/>
<path d="M0 0H29C40.0457 0 49 8.95431 49 20V49H20C8.9543 49 0 40.0457 0 29V0Z" fill="#52FC95"/>
<path d="M51 51H80C91.0457 51 100 59.9543 100 71V100H71C59.9543 100 51 91.0457 51 80V51Z" fill="#028C39"/>
<path d="M26 26H55C66.0457 26 75 34.9543 75 46V75H46C34.9543 75 26 66.0457 26 55V26Z" fill="#05BB4D"/>
</svg>
